<svg xmlns="http://www.w3.org/2000/svg" width="267" height="32" viewBox="0 0 267 32">
  <g id="g2198" transform="translate(-39.528 -0.5)">
    <g id="g2177" transform="translate(39.927 0)">
      <path id="rect1723" d="M20.285-234.365v8a7.879,7.879,0,0,0,8,8h0a7.879,7.879,0,0,0,8-8v-8h-5v6h3l-6,7-6-7h4v-6Z" transform="translate(-20.684 234.865)"/>
      <rect id="rect1797" width="16" height="5" transform="translate(-0.399 27.5)" fill="#ff8f3b"/>
      <path id="path1799" d="M28.217-218.518v-16h4l8,9v-9h4v16h-3l-9-10v10Z" transform="translate(-9.616 235.018)"/>
      <rect id="rect1801" width="4" height="16" transform="translate(41.601 0.5)"/>
      <path id="path1803" d="M52.712-218.518v-16h5l8,9v-9h4v16h-3l-9-10v10Z" transform="translate(36.889 235.018)"/>
      <path id="rect1805" d="M60.848-234.518v4h6v12h4v-12h6v-4h-16Z" transform="translate(49.753 235.018)"/>
      <path id="rect1810" d="M82.994-234.518v16h13v-5h-9v-11Z" transform="translate(88.607 235.018)"/>
      <path id="rect1815" d="M80.711-234.407c-2.931,0-6,1.493-6,4v7c0,2.507,3.069,5,6,5h6a5.052,5.052,0,0,0,5-5v-7c0-2.507-2.069-4-5-4Zm-1,4h7a1.175,1.175,0,0,1,1,1v5a1.175,1.175,0,0,1-1,1h-7c-.4,0,0-.5,0-1v-5C79.711-229.9,79.316-230.407,79.711-230.407Z" transform="translate(76.89 234.907)"/>
      <path id="path1888" d="M50.836-234.407c-2.931,0-5,1.493-5,4v7a5.052,5.052,0,0,0,5,5h6c2.931,0,6-2.493,6-5v-7c0-2.507-3.069-4-6-4Zm0,4h7a1.175,1.175,0,0,1,1,1v5a1.175,1.175,0,0,1-1,1h-7a1.175,1.175,0,0,1-1-1v-5A1.175,1.175,0,0,1,50.836-230.407Z" transform="translate(23.764 234.907)"/>
      <path id="path1890" d="M43.1-234.407c-2.931,0-5,1.493-5,4v7a5.052,5.052,0,0,0,5,5h7a5.052,5.052,0,0,0,5-5v-2h-4v1a1.175,1.175,0,0,1-1,1h-7c-.4,0,0-.5,0-1v-5c0-.5-.4-1,0-1h7a1.175,1.175,0,0,1,1,1v1h4v-2c0-2.507-2.069-4-5-4Z" transform="translate(10.504 234.907)"/>
      <path id="rect1897" d="M67.211-234.431v16h5v-5h4l4,5h5l-4-5c2.136-.708,3-2.765,3-5v-1a4.775,4.775,0,0,0-5-5h-12Zm5,4h8c.324,0,0-.29,0,0v2c0,.29.324,1,0,1h-8c-.324,0,0-.71,0-1v-2C72.211-230.721,71.887-230.431,72.211-230.431Z" transform="translate(62.39 234.931)"/>
    </g>
    <g id="g2164" transform="translate(229.178 0)">
      <rect id="rect2156" width="77" height="18" rx="1.627" transform="translate(0.349 0.5)" fill="#ff9031"/>
      <path id="path2143" d="M-37.855,110.526v7c0,3.853,2.307,7,6,7h0a7.122,7.122,0,0,0,7-7v-7h-5v6h3l-5,5-5-5h3v-6Z" transform="translate(84.205 -108.026)" fill="#fff"/>
      <path id="path2145" d="M-47.951,110.526v13h12v-4h-8v-9Z" transform="translate(66.3 -108.026)" fill="#fff"/>
      <path id="path2147" d="M-39.3,110.526a4.028,4.028,0,0,0-4,4v5a4.028,4.028,0,0,0,4,4h5a4.028,4.028,0,0,0,4-4v-5a4.028,4.028,0,0,0-4-4Zm0,4h5c.318,0,1-.4,1,0v5c0,.4-.682,0-1,0h-5c-.318,0-1,.4-1,0v-5C-40.3,114.127-39.614,114.526-39.3,114.526Z" transform="translate(74.645 -108.026)" fill="#fff"/>
      <path id="path2149" d="M-49.069,110.526a4.028,4.028,0,0,0-4,4v5a4.028,4.028,0,0,0,4,4h5a4.028,4.028,0,0,0,4-4v-1h-3v1c0,.4-.682,0-1,0h-5c-.318,0-1,.4-1,0v-5c0-.4.682,0,1,0h5c.318,0,1-.4,1,0v1h3v-1a4.028,4.028,0,0,0-4-4Z" transform="translate(56.418 -108.026)" fill="#fff"/>
      <path id="path2151" d="M-32.614,110.529v13h3c.184.021.809,0,1,0h5a4.028,4.028,0,0,0,4-4v-5a4.028,4.028,0,0,0-4-4h-5c-.191,0-.816-.021-1,0h-3Zm4,4h5c.318,0,1-.4,1,0v5c0,.4-.682,0-1,0h-5c-.192,0-1,.153-1,0v-5C-29.6,114.371-28.806,114.529-28.614,114.529Z" transform="translate(93.964 -108.029)" fill="#fff"/>
    </g>
  </g>
</svg>
